<mxfile host="app.diagrams.net" agent="Mozilla/5.0 (X11; Linux x86_64; rv:138.0) Gecko/20100101 Firefox/138.0" version="27.0.1">
  <diagram id="Irjonav8dbQ_voJieWPL" name="Review">
    <mxGraphModel dx="1111" dy="440" grid="1" gridSize="10" guides="1" tooltips="1" connect="1" arrows="1" fold="1" page="1" pageScale="1" pageWidth="827" pageHeight="1169" math="0" shadow="0">
      <root>
        <mxCell id="0" />
        <mxCell id="1" parent="0" />
        <mxCell id="8MBeUae0GPYBS13Bdwm8-2" value="Review" style="html=1;strokeColor=none;resizeWidth=1;resizeHeight=1;fillColor=none;part=1;connectable=0;allowArrows=0;deletable=0;whiteSpace=wrap;" parent="1" vertex="1">
          <mxGeometry x="820" y="50" width="600" height="60" as="geometry">
            <mxPoint y="30" as="offset" />
          </mxGeometry>
        </mxCell>
        <mxCell id="NigpG-iFhlro9Zwkpmp9-1" value="Package" style="shape=folder;fontStyle=1;tabWidth=110;tabHeight=30;tabPosition=left;html=1;boundedLbl=1;labelInHeader=1;container=0;collapsible=0;whiteSpace=wrap;" parent="1" vertex="1">
          <mxGeometry x="640" y="50" width="960" height="750" as="geometry" />
        </mxCell>
        <mxCell id="NigpG-iFhlro9Zwkpmp9-2" value="Review" style="html=1;strokeColor=none;resizeWidth=1;resizeHeight=1;fillColor=none;part=1;connectable=0;allowArrows=0;deletable=0;whiteSpace=wrap;" parent="1" vertex="1">
          <mxGeometry x="820" y="50" width="600" height="60" as="geometry">
            <mxPoint y="30" as="offset" />
          </mxGeometry>
        </mxCell>
        <mxCell id="NigpG-iFhlro9Zwkpmp9-3" value="&lt;div&gt;&lt;span style=&quot;font-weight: normal;&quot;&gt;&amp;lt;&amp;lt;Controller&amp;gt;&amp;gt;&lt;/span&gt;&lt;/div&gt;ReviewController" style="swimlane;fontStyle=1;align=center;verticalAlign=top;childLayout=stackLayout;horizontal=1;startSize=40;horizontalStack=0;resizeParent=1;resizeParentMax=0;resizeLast=0;collapsible=1;marginBottom=0;whiteSpace=wrap;html=1;strokeColor=default;swimlaneFillColor=#FF6666;fontFamily=Helvetica;fontSize=12;fontColor=default;fillColor=#FF6666;" parent="1" vertex="1">
          <mxGeometry x="1130" y="160" width="420" height="337" as="geometry" />
        </mxCell>
        <mxCell id="NigpG-iFhlro9Zwkpmp9-4" value="" style="line;strokeWidth=1;fillColor=#FF6666;align=center;verticalAlign=top;spacingTop=-1;spacingLeft=3;spacingRight=3;rotatable=0;labelPosition=right;points=[];portConstraint=eastwest;strokeColor=default;swimlaneFillColor=#FF6666;fontFamily=Helvetica;fontSize=12;fontColor=default;fontStyle=1;horizontal=1;" parent="NigpG-iFhlro9Zwkpmp9-3" vertex="1">
          <mxGeometry y="40" width="420" height="11" as="geometry" />
        </mxCell>
        <mxCell id="NigpG-iFhlro9Zwkpmp9-5" value="+ editReview(): void" style="text;strokeColor=none;fillColor=none;align=left;verticalAlign=top;spacingLeft=4;spacingRight=4;overflow=hidden;rotatable=0;points=[[0,0.5],[1,0.5]];portConstraint=eastwest;whiteSpace=wrap;html=1;fontFamily=Helvetica;fontSize=12;fontColor=default;fontStyle=0;horizontal=1;" parent="NigpG-iFhlro9Zwkpmp9-3" vertex="1">
          <mxGeometry y="51" width="420" height="35.75" as="geometry" />
        </mxCell>
        <mxCell id="NigpG-iFhlro9Zwkpmp9-6" value="+ addPhotoToReview(): void" style="text;strokeColor=none;fillColor=none;align=left;verticalAlign=top;spacingLeft=4;spacingRight=4;overflow=hidden;rotatable=0;points=[[0,0.5],[1,0.5]];portConstraint=eastwest;whiteSpace=wrap;html=1;fontFamily=Helvetica;fontSize=12;fontColor=default;fontStyle=0;horizontal=1;" parent="NigpG-iFhlro9Zwkpmp9-3" vertex="1">
          <mxGeometry y="86.75" width="420" height="35.75" as="geometry" />
        </mxCell>
        <mxCell id="NigpG-iFhlro9Zwkpmp9-7" value="+ writeText(text): void" style="text;strokeColor=none;fillColor=none;align=left;verticalAlign=top;spacingLeft=4;spacingRight=4;overflow=hidden;rotatable=0;points=[[0,0.5],[1,0.5]];portConstraint=eastwest;whiteSpace=wrap;html=1;fontFamily=Helvetica;fontSize=12;fontColor=default;fontStyle=0;horizontal=1;" parent="NigpG-iFhlro9Zwkpmp9-3" vertex="1">
          <mxGeometry y="122.5" width="420" height="35.75" as="geometry" />
        </mxCell>
        <mxCell id="NigpG-iFhlro9Zwkpmp9-8" value="+&amp;nbsp;saveReview(): void" style="text;strokeColor=none;fillColor=none;align=left;verticalAlign=top;spacingLeft=4;spacingRight=4;overflow=hidden;rotatable=0;points=[[0,0.5],[1,0.5]];portConstraint=eastwest;whiteSpace=wrap;html=1;fontFamily=Helvetica;fontSize=12;fontColor=default;fontStyle=0;horizontal=1;" parent="NigpG-iFhlro9Zwkpmp9-3" vertex="1">
          <mxGeometry y="158.25" width="420" height="35.75" as="geometry" />
        </mxCell>
        <mxCell id="NigpG-iFhlro9Zwkpmp9-9" value="+ chooseTripPlan(): void" style="text;strokeColor=none;fillColor=none;align=left;verticalAlign=top;spacingLeft=4;spacingRight=4;overflow=hidden;rotatable=0;points=[[0,0.5],[1,0.5]];portConstraint=eastwest;whiteSpace=wrap;html=1;fontFamily=Helvetica;fontSize=12;fontColor=default;fontStyle=0;horizontal=1;" parent="NigpG-iFhlro9Zwkpmp9-3" vertex="1">
          <mxGeometry y="194" width="420" height="35.75" as="geometry" />
        </mxCell>
        <mxCell id="NigpG-iFhlro9Zwkpmp9-10" value="+ chooseMarkedActivity(): void" style="text;strokeColor=none;fillColor=none;align=left;verticalAlign=top;spacingLeft=4;spacingRight=4;overflow=hidden;rotatable=0;points=[[0,0.5],[1,0.5]];portConstraint=eastwest;whiteSpace=wrap;html=1;fontFamily=Helvetica;fontSize=12;fontColor=default;fontStyle=0;horizontal=1;" parent="NigpG-iFhlro9Zwkpmp9-3" vertex="1">
          <mxGeometry y="229.75" width="420" height="35.75" as="geometry" />
        </mxCell>
        <mxCell id="NigpG-iFhlro9Zwkpmp9-11" value="+ postActivityReview(activity: Activity, text: String, pictures: List&amp;lt;Image&amp;gt;)" style="text;strokeColor=none;fillColor=none;align=left;verticalAlign=top;spacingLeft=4;spacingRight=4;overflow=hidden;rotatable=0;points=[[0,0.5],[1,0.5]];portConstraint=eastwest;whiteSpace=wrap;html=1;fontFamily=Helvetica;fontSize=12;fontColor=default;fontStyle=0;horizontal=1;" parent="NigpG-iFhlro9Zwkpmp9-3" vertex="1">
          <mxGeometry y="265.5" width="420" height="35.75" as="geometry" />
        </mxCell>
        <mxCell id="NigpG-iFhlro9Zwkpmp9-12" value="+&amp;nbsp;postTripPlanReview(tripPlan: TripPlan, text: String, pictures: List&amp;lt;Image&amp;gt;)" style="text;strokeColor=none;fillColor=none;align=left;verticalAlign=top;spacingLeft=4;spacingRight=4;overflow=hidden;rotatable=0;points=[[0,0.5],[1,0.5]];portConstraint=eastwest;whiteSpace=wrap;html=1;fontFamily=Helvetica;fontSize=12;fontColor=default;fontStyle=0;horizontal=1;" parent="NigpG-iFhlro9Zwkpmp9-3" vertex="1">
          <mxGeometry y="301.25" width="420" height="35.75" as="geometry" />
        </mxCell>
        <mxCell id="NigpG-iFhlro9Zwkpmp9-13" value="&lt;div&gt;&lt;span style=&quot;font-weight: normal;&quot;&gt;&amp;lt;&amp;lt;Entity&amp;gt;&amp;gt;&lt;/span&gt;&lt;/div&gt;Review" style="swimlane;fontStyle=1;align=center;verticalAlign=top;childLayout=stackLayout;horizontal=1;startSize=40;horizontalStack=0;resizeParent=1;resizeParentMax=0;resizeLast=0;collapsible=1;marginBottom=0;whiteSpace=wrap;html=1;fillStyle=auto;strokeColor=default;swimlaneFillColor=#A9C4EB;fontFamily=Helvetica;fontSize=12;fontColor=default;fillColor=#A9C4EB;" parent="1" vertex="1">
          <mxGeometry x="824" y="540" width="160" height="204" as="geometry" />
        </mxCell>
        <mxCell id="NigpG-iFhlro9Zwkpmp9-14" value="- reviewId: String" style="text;align=left;verticalAlign=top;spacingLeft=4;spacingRight=4;overflow=hidden;rotatable=0;points=[[0,0.5],[1,0.5]];portConstraint=eastwest;whiteSpace=wrap;html=1;fillStyle=auto;fontFamily=Helvetica;fontSize=12;fontColor=default;fontStyle=0;horizontal=1;" parent="NigpG-iFhlro9Zwkpmp9-13" vertex="1">
          <mxGeometry y="40" width="160" height="26" as="geometry" />
        </mxCell>
        <mxCell id="NigpG-iFhlro9Zwkpmp9-15" value="- activityId: String" style="text;align=left;verticalAlign=top;spacingLeft=4;spacingRight=4;overflow=hidden;rotatable=0;points=[[0,0.5],[1,0.5]];portConstraint=eastwest;whiteSpace=wrap;html=1;fillStyle=auto;fontFamily=Helvetica;fontSize=12;fontColor=default;fontStyle=0;horizontal=1;" parent="NigpG-iFhlro9Zwkpmp9-13" vertex="1">
          <mxGeometry y="66" width="160" height="26" as="geometry" />
        </mxCell>
        <mxCell id="NigpG-iFhlro9Zwkpmp9-16" value="- rating: Integer" style="text;align=left;verticalAlign=top;spacingLeft=4;spacingRight=4;overflow=hidden;rotatable=0;points=[[0,0.5],[1,0.5]];portConstraint=eastwest;whiteSpace=wrap;html=1;fillStyle=auto;fontFamily=Helvetica;fontSize=12;fontColor=default;fontStyle=0;horizontal=1;" parent="NigpG-iFhlro9Zwkpmp9-13" vertex="1">
          <mxGeometry y="92" width="160" height="26" as="geometry" />
        </mxCell>
        <mxCell id="NigpG-iFhlro9Zwkpmp9-17" value="- comment: String" style="text;align=left;verticalAlign=top;spacingLeft=4;spacingRight=4;overflow=hidden;rotatable=0;points=[[0,0.5],[1,0.5]];portConstraint=eastwest;whiteSpace=wrap;html=1;fillStyle=auto;fontFamily=Helvetica;fontSize=12;fontColor=default;fontStyle=0;horizontal=1;" parent="NigpG-iFhlro9Zwkpmp9-13" vertex="1">
          <mxGeometry y="118" width="160" height="26" as="geometry" />
        </mxCell>
        <mxCell id="NigpG-iFhlro9Zwkpmp9-18" value="- photoUrl: String" style="text;align=left;verticalAlign=top;spacingLeft=4;spacingRight=4;overflow=hidden;rotatable=0;points=[[0,0.5],[1,0.5]];portConstraint=eastwest;whiteSpace=wrap;html=1;fillStyle=auto;fontFamily=Helvetica;fontSize=12;fontColor=default;fontStyle=0;horizontal=1;" parent="NigpG-iFhlro9Zwkpmp9-13" vertex="1">
          <mxGeometry y="144" width="160" height="26" as="geometry" />
        </mxCell>
        <mxCell id="NigpG-iFhlro9Zwkpmp9-19" value="" style="line;strokeWidth=1;align=center;verticalAlign=top;spacingTop=-1;spacingLeft=3;spacingRight=3;rotatable=0;labelPosition=right;points=[];portConstraint=eastwest;fillStyle=auto;strokeColor=default;swimlaneFillColor=#A9C4EB;fontFamily=Helvetica;fontSize=12;fontColor=default;fontStyle=1;horizontal=1;fillColor=#A9C4EB;" parent="NigpG-iFhlro9Zwkpmp9-13" vertex="1">
          <mxGeometry y="170" width="160" height="8" as="geometry" />
        </mxCell>
        <mxCell id="NigpG-iFhlro9Zwkpmp9-20" value="+ createReview(): void" style="text;align=left;verticalAlign=top;spacingLeft=4;spacingRight=4;overflow=hidden;rotatable=0;points=[[0,0.5],[1,0.5]];portConstraint=eastwest;whiteSpace=wrap;html=1;fillStyle=auto;fontFamily=Helvetica;fontSize=12;fontColor=default;fontStyle=0;horizontal=1;" parent="NigpG-iFhlro9Zwkpmp9-13" vertex="1">
          <mxGeometry y="178" width="160" height="26" as="geometry" />
        </mxCell>
        <mxCell id="NigpG-iFhlro9Zwkpmp9-21" value="&lt;div&gt;&lt;span style=&quot;font-weight: normal;&quot;&gt;&amp;lt;&amp;lt;Boundary&amp;gt;&amp;gt;&lt;/span&gt;&lt;/div&gt;GUIReview" style="swimlane;fontStyle=1;align=center;verticalAlign=top;childLayout=stackLayout;horizontal=1;startSize=42;horizontalStack=0;resizeParent=1;resizeParentMax=0;resizeLast=0;collapsible=1;marginBottom=0;whiteSpace=wrap;html=1;strokeColor=default;swimlaneFillColor=#CC99FF;fontFamily=Helvetica;fontSize=12;fontColor=default;fillColor=#CC99FF;" parent="1" vertex="1">
          <mxGeometry x="690" y="180" width="270" height="284" as="geometry" />
        </mxCell>
        <mxCell id="NigpG-iFhlro9Zwkpmp9-22" value="-btnPostReview: Button" style="text;strokeColor=none;fillColor=none;align=left;verticalAlign=top;spacingLeft=4;spacingRight=4;overflow=hidden;rotatable=0;points=[[0,0.5],[1,0.5]];portConstraint=eastwest;whiteSpace=wrap;html=1;fontFamily=Helvetica;fontSize=12;fontColor=default;fontStyle=0;horizontal=1;" parent="NigpG-iFhlro9Zwkpmp9-21" vertex="1">
          <mxGeometry y="42" width="270" height="26" as="geometry" />
        </mxCell>
        <mxCell id="NigpG-iFhlro9Zwkpmp9-23" value="-btnCancelReview: Button" style="text;strokeColor=none;fillColor=none;align=left;verticalAlign=top;spacingLeft=4;spacingRight=4;overflow=hidden;rotatable=0;points=[[0,0.5],[1,0.5]];portConstraint=eastwest;whiteSpace=wrap;html=1;fontFamily=Helvetica;fontSize=12;fontColor=default;fontStyle=0;horizontal=1;" parent="NigpG-iFhlro9Zwkpmp9-21" vertex="1">
          <mxGeometry y="68" width="270" height="26" as="geometry" />
        </mxCell>
        <mxCell id="NigpG-iFhlro9Zwkpmp9-24" value="-btnTripPlan: Button" style="text;strokeColor=none;fillColor=none;align=left;verticalAlign=top;spacingLeft=4;spacingRight=4;overflow=hidden;rotatable=0;points=[[0,0.5],[1,0.5]];portConstraint=eastwest;whiteSpace=wrap;html=1;fontFamily=Helvetica;fontSize=12;fontColor=default;fontStyle=0;horizontal=1;" parent="NigpG-iFhlro9Zwkpmp9-21" vertex="1">
          <mxGeometry y="94" width="270" height="26" as="geometry" />
        </mxCell>
        <mxCell id="NigpG-iFhlro9Zwkpmp9-25" value="-btnActivity: Button" style="text;strokeColor=none;fillColor=none;align=left;verticalAlign=top;spacingLeft=4;spacingRight=4;overflow=hidden;rotatable=0;points=[[0,0.5],[1,0.5]];portConstraint=eastwest;whiteSpace=wrap;html=1;fontFamily=Helvetica;fontSize=12;fontColor=default;fontStyle=0;horizontal=1;" parent="NigpG-iFhlro9Zwkpmp9-21" vertex="1">
          <mxGeometry y="120" width="270" height="26" as="geometry" />
        </mxCell>
        <mxCell id="NigpG-iFhlro9Zwkpmp9-26" value="" style="line;strokeWidth=1;fillColor=#CC99FF;align=center;verticalAlign=top;spacingTop=-1;spacingLeft=3;spacingRight=3;rotatable=0;labelPosition=right;points=[];portConstraint=eastwest;strokeColor=default;swimlaneFillColor=#CC99FF;fontFamily=Helvetica;fontSize=12;fontColor=default;fontStyle=1;horizontal=1;" parent="NigpG-iFhlro9Zwkpmp9-21" vertex="1">
          <mxGeometry y="146" width="270" height="8" as="geometry" />
        </mxCell>
        <mxCell id="NigpG-iFhlro9Zwkpmp9-27" value="+submitReview():void" style="text;strokeColor=none;fillColor=none;align=left;verticalAlign=top;spacingLeft=4;spacingRight=4;overflow=hidden;rotatable=0;points=[[0,0.5],[1,0.5]];portConstraint=eastwest;whiteSpace=wrap;html=1;fontFamily=Helvetica;fontSize=12;fontColor=default;fontStyle=0;horizontal=1;" parent="NigpG-iFhlro9Zwkpmp9-21" vertex="1">
          <mxGeometry y="154" width="270" height="26" as="geometry" />
        </mxCell>
        <mxCell id="NigpG-iFhlro9Zwkpmp9-28" value="+ showSuccessMessage(message: string): void&amp;nbsp;" style="text;strokeColor=none;fillColor=none;align=left;verticalAlign=top;spacingLeft=4;spacingRight=4;overflow=hidden;rotatable=0;points=[[0,0.5],[1,0.5]];portConstraint=eastwest;whiteSpace=wrap;html=1;fontFamily=Helvetica;fontSize=12;fontColor=default;fontStyle=0;horizontal=1;" parent="NigpG-iFhlro9Zwkpmp9-21" vertex="1">
          <mxGeometry y="180" width="270" height="26" as="geometry" />
        </mxCell>
        <mxCell id="NigpG-iFhlro9Zwkpmp9-29" value="+ showFailMessage(message: string): void&amp;nbsp;" style="text;strokeColor=none;fillColor=none;align=left;verticalAlign=top;spacingLeft=4;spacingRight=4;overflow=hidden;rotatable=0;points=[[0,0.5],[1,0.5]];portConstraint=eastwest;whiteSpace=wrap;html=1;fontFamily=Helvetica;fontSize=12;fontColor=default;fontStyle=0;horizontal=1;" parent="NigpG-iFhlro9Zwkpmp9-21" vertex="1">
          <mxGeometry y="206" width="270" height="26" as="geometry" />
        </mxCell>
        <mxCell id="NigpG-iFhlro9Zwkpmp9-30" value="+ pressTripPlanBtn(): void" style="text;strokeColor=none;fillColor=none;align=left;verticalAlign=top;spacingLeft=4;spacingRight=4;overflow=hidden;rotatable=0;points=[[0,0.5],[1,0.5]];portConstraint=eastwest;whiteSpace=wrap;html=1;fontFamily=Helvetica;fontSize=12;fontColor=default;fontStyle=0;horizontal=1;" parent="NigpG-iFhlro9Zwkpmp9-21" vertex="1">
          <mxGeometry y="232" width="270" height="26" as="geometry" />
        </mxCell>
        <mxCell id="NigpG-iFhlro9Zwkpmp9-31" value="+ pressActivityBtn(): void" style="text;strokeColor=none;fillColor=none;align=left;verticalAlign=top;spacingLeft=4;spacingRight=4;overflow=hidden;rotatable=0;points=[[0,0.5],[1,0.5]];portConstraint=eastwest;whiteSpace=wrap;html=1;fontFamily=Helvetica;fontSize=12;fontColor=default;fontStyle=0;horizontal=1;" parent="NigpG-iFhlro9Zwkpmp9-21" vertex="1">
          <mxGeometry y="258" width="270" height="26" as="geometry" />
        </mxCell>
        <mxCell id="NigpG-iFhlro9Zwkpmp9-32" value="" style="endArrow=none;html=1;rounded=0;exitX=0;exitY=0.5;exitDx=0;exitDy=0;entryX=1;entryY=0.5;entryDx=0;entryDy=0;" parent="1" source="NigpG-iFhlro9Zwkpmp9-9" target="NigpG-iFhlro9Zwkpmp9-23" edge="1">
          <mxGeometry relative="1" as="geometry">
            <mxPoint x="1203" y="497" as="sourcePoint" />
            <mxPoint x="1020" y="78" as="targetPoint" />
          </mxGeometry>
        </mxCell>
        <mxCell id="NigpG-iFhlro9Zwkpmp9-33" value="1" style="edgeLabel;html=1;align=center;verticalAlign=middle;resizable=0;points=[];" parent="NigpG-iFhlro9Zwkpmp9-32" connectable="0" vertex="1">
          <mxGeometry x="0.7987" y="1" relative="1" as="geometry">
            <mxPoint y="-11" as="offset" />
          </mxGeometry>
        </mxCell>
        <mxCell id="NigpG-iFhlro9Zwkpmp9-34" value="1" style="edgeLabel;html=1;align=center;verticalAlign=middle;resizable=0;points=[];" parent="NigpG-iFhlro9Zwkpmp9-32" connectable="0" vertex="1">
          <mxGeometry x="-0.841" y="-3" relative="1" as="geometry">
            <mxPoint x="2" y="-11" as="offset" />
          </mxGeometry>
        </mxCell>
        <mxCell id="NigpG-iFhlro9Zwkpmp9-35" value="" style="endArrow=none;html=1;rounded=0;" parent="1" source="NigpG-iFhlro9Zwkpmp9-3" target="NigpG-iFhlro9Zwkpmp9-13" edge="1">
          <mxGeometry relative="1" as="geometry">
            <mxPoint x="1140" y="382" as="sourcePoint" />
            <mxPoint x="970" y="271" as="targetPoint" />
          </mxGeometry>
        </mxCell>
        <mxCell id="NigpG-iFhlro9Zwkpmp9-36" value="0..*" style="edgeLabel;html=1;align=center;verticalAlign=middle;resizable=0;points=[];" parent="NigpG-iFhlro9Zwkpmp9-35" connectable="0" vertex="1">
          <mxGeometry x="0.7987" y="1" relative="1" as="geometry">
            <mxPoint y="-25" as="offset" />
          </mxGeometry>
        </mxCell>
        <mxCell id="NigpG-iFhlro9Zwkpmp9-37" value="1" style="edgeLabel;html=1;align=center;verticalAlign=middle;resizable=0;points=[];" parent="NigpG-iFhlro9Zwkpmp9-35" connectable="0" vertex="1">
          <mxGeometry x="-0.841" y="-3" relative="1" as="geometry">
            <mxPoint x="2" y="-11" as="offset" />
          </mxGeometry>
        </mxCell>
        <mxCell id="NigpG-iFhlro9Zwkpmp9-38" value="&lt;div&gt;&lt;span style=&quot;font-weight: normal;&quot;&gt;&amp;lt;&amp;lt;Controller&amp;gt;&amp;gt;&lt;/span&gt;&lt;/div&gt;DisplayController" style="swimlane;fontStyle=1;align=center;verticalAlign=top;childLayout=stackLayout;horizontal=1;startSize=40;horizontalStack=0;resizeParent=1;resizeParentMax=0;resizeLast=0;collapsible=1;marginBottom=0;whiteSpace=wrap;html=1;strokeColor=default;swimlaneFillColor=#FF6666;fontFamily=Helvetica;fontSize=12;fontColor=default;fillColor=#FF6666;" parent="1" vertex="1">
          <mxGeometry x="140" y="130" width="250" height="301.25" as="geometry" />
        </mxCell>
        <mxCell id="NigpG-iFhlro9Zwkpmp9-39" value="" style="line;strokeWidth=1;fillColor=#FF6666;align=center;verticalAlign=top;spacingTop=-1;spacingLeft=3;spacingRight=3;rotatable=0;labelPosition=right;points=[];portConstraint=eastwest;strokeColor=default;swimlaneFillColor=#FF6666;fontFamily=Helvetica;fontSize=12;fontColor=default;fontStyle=1;horizontal=1;" parent="NigpG-iFhlro9Zwkpmp9-38" vertex="1">
          <mxGeometry y="40" width="250" height="11" as="geometry" />
        </mxCell>
        <mxCell id="NigpG-iFhlro9Zwkpmp9-40" value="+displayMainPage(): void" style="text;strokeColor=none;fillColor=none;align=left;verticalAlign=top;spacingLeft=4;spacingRight=4;overflow=hidden;rotatable=0;points=[[0,0.5],[1,0.5]];portConstraint=eastwest;whiteSpace=wrap;html=1;fontFamily=Helvetica;fontSize=12;fontColor=default;fontStyle=0;horizontal=1;" parent="NigpG-iFhlro9Zwkpmp9-38" vertex="1">
          <mxGeometry y="51" width="250" height="35.75" as="geometry" />
        </mxCell>
        <mxCell id="NigpG-iFhlro9Zwkpmp9-41" value="+displayOverview_Edit-ExportPage(): void" style="text;strokeColor=none;fillColor=none;align=left;verticalAlign=top;spacingLeft=4;spacingRight=4;overflow=hidden;rotatable=0;points=[[0,0.5],[1,0.5]];portConstraint=eastwest;whiteSpace=wrap;html=1;fontFamily=Helvetica;fontSize=12;fontColor=default;fontStyle=0;horizontal=1;" parent="NigpG-iFhlro9Zwkpmp9-38" vertex="1">
          <mxGeometry y="86.75" width="250" height="35.75" as="geometry" />
        </mxCell>
        <mxCell id="NigpG-iFhlro9Zwkpmp9-42" value="+displayOverview_Save-CancelPage(): void" style="text;strokeColor=none;fillColor=none;align=left;verticalAlign=top;spacingLeft=4;spacingRight=4;overflow=hidden;rotatable=0;points=[[0,0.5],[1,0.5]];portConstraint=eastwest;whiteSpace=wrap;html=1;fontFamily=Helvetica;fontSize=12;fontColor=default;fontStyle=0;horizontal=1;" parent="NigpG-iFhlro9Zwkpmp9-38" vertex="1">
          <mxGeometry y="122.5" width="250" height="35.75" as="geometry" />
        </mxCell>
        <mxCell id="NigpG-iFhlro9Zwkpmp9-43" value="+displayDailyPlanPage(): void" style="text;strokeColor=none;fillColor=none;align=left;verticalAlign=top;spacingLeft=4;spacingRight=4;overflow=hidden;rotatable=0;points=[[0,0.5],[1,0.5]];portConstraint=eastwest;whiteSpace=wrap;html=1;fontFamily=Helvetica;fontSize=12;fontColor=default;fontStyle=0;horizontal=1;" parent="NigpG-iFhlro9Zwkpmp9-38" vertex="1">
          <mxGeometry y="158.25" width="250" height="35.75" as="geometry" />
        </mxCell>
        <mxCell id="NigpG-iFhlro9Zwkpmp9-44" value="+displayReviewPage(): void" style="text;strokeColor=none;fillColor=none;align=left;verticalAlign=top;spacingLeft=4;spacingRight=4;overflow=hidden;rotatable=0;points=[[0,0.5],[1,0.5]];portConstraint=eastwest;whiteSpace=wrap;html=1;fontFamily=Helvetica;fontSize=12;fontColor=default;fontStyle=0;horizontal=1;" parent="NigpG-iFhlro9Zwkpmp9-38" vertex="1">
          <mxGeometry y="194" width="250" height="35.75" as="geometry" />
        </mxCell>
        <mxCell id="NigpG-iFhlro9Zwkpmp9-45" value="+displayFavoritesPage(): void" style="text;strokeColor=none;fillColor=none;align=left;verticalAlign=top;spacingLeft=4;spacingRight=4;overflow=hidden;rotatable=0;points=[[0,0.5],[1,0.5]];portConstraint=eastwest;whiteSpace=wrap;html=1;fontFamily=Helvetica;fontSize=12;fontColor=default;fontStyle=0;horizontal=1;" parent="NigpG-iFhlro9Zwkpmp9-38" vertex="1">
          <mxGeometry y="229.75" width="250" height="35.75" as="geometry" />
        </mxCell>
        <mxCell id="NigpG-iFhlro9Zwkpmp9-46" value="+displayAIChatPage(): void" style="text;strokeColor=none;fillColor=none;align=left;verticalAlign=top;spacingLeft=4;spacingRight=4;overflow=hidden;rotatable=0;points=[[0,0.5],[1,0.5]];portConstraint=eastwest;whiteSpace=wrap;html=1;fontFamily=Helvetica;fontSize=12;fontColor=default;fontStyle=0;horizontal=1;" parent="NigpG-iFhlro9Zwkpmp9-38" vertex="1">
          <mxGeometry y="265.5" width="250" height="35.75" as="geometry" />
        </mxCell>
        <mxCell id="NigpG-iFhlro9Zwkpmp9-47" value="" style="endArrow=none;html=1;rounded=0;" parent="1" source="NigpG-iFhlro9Zwkpmp9-21" target="NigpG-iFhlro9Zwkpmp9-38" edge="1">
          <mxGeometry relative="1" as="geometry">
            <mxPoint x="1140" y="382" as="sourcePoint" />
            <mxPoint x="970" y="271" as="targetPoint" />
          </mxGeometry>
        </mxCell>
        <mxCell id="NigpG-iFhlro9Zwkpmp9-48" value="1" style="edgeLabel;html=1;align=center;verticalAlign=middle;resizable=0;points=[];" parent="NigpG-iFhlro9Zwkpmp9-47" connectable="0" vertex="1">
          <mxGeometry x="0.7987" y="1" relative="1" as="geometry">
            <mxPoint y="-11" as="offset" />
          </mxGeometry>
        </mxCell>
        <mxCell id="NigpG-iFhlro9Zwkpmp9-49" value="1" style="edgeLabel;html=1;align=center;verticalAlign=middle;resizable=0;points=[];" parent="NigpG-iFhlro9Zwkpmp9-47" connectable="0" vertex="1">
          <mxGeometry x="-0.841" y="-3" relative="1" as="geometry">
            <mxPoint x="2" y="-11" as="offset" />
          </mxGeometry>
        </mxCell>
      </root>
    </mxGraphModel>
  </diagram>
</mxfile>
